<?xml version="1.0" encoding="UTF-8"?>
<svg width="512" height="512" viewBox="0 0 512 512" fill="none" xmlns="http://www.w3.org/2000/svg">
    <rect width="512" height="512" rx="128" fill="#7AA2F7"/>
    <path d="M256 128C179.307 128 117.333 189.973 117.333 266.667C117.333 305.067 132.267 340.267 156.8 366.933L138.667 405.333C136.533 409.6 137.6 414.933 141.867 417.067C144 418.133 146.133 418.133 148.267 418.133C150.4 418.133 153.6 417.067 154.667 414.933L172.8 376.533C195.2 393.6 224.533 405.333 256 405.333C332.693 405.333 394.667 343.36 394.667 266.667C394.667 189.973 332.693 128 256 128ZM256 384C188.16 384 138.667 334.507 138.667 266.667C138.667 198.827 188.16 149.333 256 149.333C323.84 149.333 373.333 198.827 373.333 266.667C373.333 334.507 323.84 384 256 384Z" fill="white"/>
    <circle cx="192" cy="266.667" r="21.3333" fill="white"/>
    <circle cx="256" cy="266.667" r="21.3333" fill="white"/>
    <circle cx="320" cy="266.667" r="21.3333" fill="white"/>
</svg> 